<?xml version="1.0" standalone="no"?>
<!DOCTYPE svg PUBLIC "-//W3C//DTD SVG 20010904//EN"
 "http://www.w3.org/TR/2001/REC-SVG-20010904/DTD/svg10.dtd">
<svg version="1.0" xmlns="http://www.w3.org/2000/svg"
 width="544.000000pt" height="544.000000pt" viewBox="0 0 544.000000 544.000000"
 preserveAspectRatio="xMidYMid meet">
<metadata>
Created by potrace 1.14, written by Peter Selinger 2001-2017
</metadata>
<g transform="translate(0.000000,544.000000) scale(0.100000,-0.100000)"
fill="#000000" stroke="none">
<path d="M439 5216 c-2 -2 -18 -6 -35 -9 -16 -3 -64 -20 -105 -39 -124 -58
-225 -171 -274 -308 -20 -54 -20 -87 -20 -2145 l0 -2090 29 -70 c34 -82 87
-157 148 -210 55 -48 167 -102 239 -115 37 -7 810 -9 2335 -8 1897 3 2284 5
2309 17 17 7 52 23 80 35 62 26 75 36 150 113 67 67 105 135 129 230 15 55 16
262 14 2130 l-3 2068 -29 70 c-34 82 -87 157 -148 210 -40 35 -141 92 -177
101 -9 2 -34 8 -56 13 -38 10 -4576 16 -4586 7z"/>
</g>
</svg>
